# xmcd
#
# Track frame offsets:
#	150
#	17043
#	32407
#	49851
#	64875
#	79534
#	93160
#	111464
#	127735
#	137835
#	154452
#	170524
#	187208
#	208187
#	218429
#	236623
#	251210
#
# Disc length: 3558 seconds
#
# Revision: 1
# Processed by: cddbd v1.5.2PL0 Copyright (c) Steve Scherf et al.
# Submitted via: audiograbber 1.83.01
#
DISCID=f00de411
DTITLE=Steve Haggerty - Love, Heart and Soul
DYEAR=2014
DGENRE=Ballad
TTITLE0=Fields of Gold
TTITLE1=Fire and Rain
TTITLE2=Fragile
TTITLE3=Have a little faith in me
TTITLE4=Your picture
TTITLE5=Imagine
TTITLE6=Tears in Heaven
TTITLE7=The Book of Love
TTITLE8=What a wonderful world
TTITLE9=Let it be
TTITLE10=You are so beautiful
TTITLE11=You raise me up
TTITLE12=Up where we belong
TTITLE13=Yesterday
TTITLE14=Alles was ich will
TTITLE15=Du hast dich in mein Herz gelacht
TTITLE16=Ich lege mein Herz in deine Haende
EXTD=
EXTT0=
EXTT1=
EXTT2=
EXTT3=
EXTT4=
EXTT5=
EXTT6=
EXTT7=
EXTT8=
EXTT9=
EXTT10=
EXTT11=
EXTT12=
EXTT13=
EXTT14=
EXTT15=
EXTT16=
PLAYORDER=
